<svg width="20" height="20" viewBox="0 0 20 20" fill="none" xmlns="http://www.w3.org/2000/svg">
<path d="M1.11986 11.48C1.31391 12.6463 1.73585 13.7629 2.36158 14.7661C2.98732 15.7692 3.80458 16.6393 4.76667 17.3265C5.72876 18.0137 6.81682 18.5046 7.9687 18.7711C9.12057 19.0377 10.3137 19.0747 11.4799 18.88C12.3997 18.7234 13.2901 18.4267 14.1199 18L17.5099 18.7C17.6386 18.7263 17.7712 18.727 17.9001 18.702C18.0291 18.677 18.1519 18.6269 18.2614 18.5545C18.371 18.482 18.4653 18.3887 18.5388 18.2798C18.6123 18.171 18.6636 18.0487 18.6899 17.92C18.7199 17.7884 18.7199 17.6516 18.6899 17.52L17.9999 14.12C18.6519 12.8531 18.9939 11.4494 18.9975 10.0246C19.0012 8.5997 18.6665 7.19432 18.021 5.92405C17.3755 4.65378 16.4376 3.55493 15.2845 2.71791C14.1314 1.88089 12.796 1.32962 11.3882 1.10944C9.98047 0.889273 8.54055 1.0065 7.18694 1.45147C5.83333 1.89645 4.60471 2.65646 3.60217 3.66897C2.59963 4.68149 1.85183 5.91757 1.42027 7.27552C0.988721 8.63347 0.885758 10.0745 1.11986 11.48Z" stroke="#2B3674" stroke-width="2" stroke-linecap="round" stroke-linejoin="round"/>
</svg>
