<svg width="48" height="48" viewBox="0 0 48 48" fill="none" xmlns="http://www.w3.org/2000/svg">
<path d="M19.9565 40.1458V43.191C19.9565 45.4242 21.7669 47.2345 24.0001 47.2345C26.2333 47.2345 28.0436 45.4242 28.0436 43.191V40.1458H19.9565Z" fill="#C7CFE2"/>
<path opacity="0.1" d="M23.0186 43.191V40.1458H19.9565V43.191C19.9565 45.4242 21.7669 47.2345 24.0001 47.2345C24.542 47.2345 25.0587 47.1272 25.5311 46.9336C24.0573 46.33 23.0186 44.8822 23.0186 43.191Z" fill="black"/>
<path d="M24.1748 8.02565C17.2086 7.93134 11.377 13.6811 11.377 20.6479C11.377 23.4246 12.2742 25.9913 13.7935 28.0756C16.2319 32.1354 17.3901 34.0269 17.7397 36.5052C17.8896 37.5678 18.7975 38.3587 19.8705 38.3587H28.1301C29.2031 38.3587 30.1109 37.5677 30.2609 36.5052C30.6106 34.0269 31.7688 32.1355 34.207 28.0756C35.7265 25.9913 36.6236 23.4246 36.6236 20.6479C36.6236 13.7344 31.066 8.11893 24.1748 8.02565Z" fill="#FFD782"/>
<path opacity="0.1" d="M21.8224 36.5051C21.4727 34.0268 20.3146 32.1354 17.8763 28.0755C16.3569 25.9912 15.4597 23.4245 15.4597 20.6478C15.4597 14.4286 20.1072 9.17962 26.0603 8.19178C25.4456 8.09081 24.8159 8.03428 24.1748 8.02547C17.2086 7.93115 11.377 13.6809 11.377 20.6477C11.377 23.4244 12.2742 25.9912 13.7935 28.0754C16.2319 32.1353 17.39 34.0267 17.7397 36.505C17.8896 37.5676 18.7975 38.3584 19.8705 38.3584H23.9533C22.8802 38.3586 21.9723 37.5677 21.8224 36.5051Z" fill="black"/>
<path d="M29.7012 40.1458L24.0001 38.3586L18.299 40.1458C17.3119 40.1458 16.5117 40.9461 16.5117 41.9331C16.5117 42.9201 17.312 43.7204 18.299 43.7204H29.7011C30.6882 43.7204 31.4884 42.9201 31.4884 41.9331C31.4885 40.9461 30.6882 40.1458 29.7012 40.1458Z" fill="#B4BBCC"/>
<path opacity="0.1" d="M20.5945 41.9332C20.5945 40.9461 21.3948 40.1459 22.3819 40.1459L26.0416 38.9987L24.0002 38.3588L18.2991 40.146C17.312 40.146 16.5117 40.9463 16.5117 41.9333C16.5117 42.9204 17.312 43.7206 18.2991 43.7206H22.3819C21.3948 43.7204 20.5945 42.9204 20.5945 41.9332Z" fill="black"/>
<path d="M29.7012 36.5712H18.299C17.3119 36.5712 16.5117 37.3715 16.5117 38.3585C16.5117 39.3456 17.312 40.1457 18.299 40.1457H29.7011C30.6882 40.1457 31.4884 39.3455 31.4884 38.3585C31.4885 37.3715 30.6882 36.5712 29.7012 36.5712Z" fill="#C7CFE2"/>
<path opacity="0.1" d="M20.5945 38.3586C20.5945 37.3715 21.3948 36.5713 22.3819 36.5713H18.2991C17.312 36.5713 16.5117 37.3716 16.5117 38.3586C16.5117 39.3457 17.312 40.1458 18.2991 40.1458H22.3819C21.3948 40.1458 20.5945 39.3458 20.5945 38.3586Z" fill="black"/>
<path d="M23.2349 0.765563V4.92647C23.2349 5.34928 23.5776 5.69203 24.0004 5.69203C24.4232 5.69203 24.766 5.34928 24.766 4.92647V0.765563C24.766 0.34275 24.4232 0 24.0004 0C23.5776 0 23.2349 0.34275 23.2349 0.765563Z" fill="black"/>
<path d="M11.9424 4.03133L13.9328 7.68533C14.0717 7.94043 14.3344 8.0848 14.6057 8.0848C14.7294 8.0848 14.8549 8.0548 14.9712 7.99143C15.3426 7.78921 15.4795 7.32421 15.2773 6.95296L13.287 3.29896C13.0848 2.92761 12.6198 2.79055 12.2485 2.99286C11.8774 3.19518 11.7403 3.66008 11.9424 4.03133Z" fill="black"/>
<path d="M3.58823 12.3008L7.08398 14.5576C7.21242 14.6406 7.35623 14.68 7.49845 14.68C7.7496 14.68 7.99579 14.5565 8.14232 14.3296C8.37164 13.9744 8.26964 13.5006 7.91442 13.2712L4.41867 11.0145C4.06335 10.7851 3.58964 10.8871 3.36032 11.2424C3.13092 11.5976 3.23301 12.0715 3.58823 12.3008Z" fill="black"/>
<path d="M35.7515 2.99288C35.38 2.79056 34.9151 2.92772 34.713 3.29897L32.7228 6.95297C32.5206 7.32431 32.6576 7.78912 33.0288 7.99144C33.1451 8.05481 33.2706 8.08481 33.3943 8.08481C33.6656 8.08481 33.9283 7.94025 34.0673 7.68534L36.0575 4.03134C36.2598 3.66 36.1227 3.19519 35.7515 2.99288Z" fill="black"/>
<path d="M43.582 11.0145L40.0863 13.2712C39.7311 13.5006 39.629 13.9744 39.8584 14.3296C40.0048 14.5564 40.2509 14.68 40.5022 14.68C40.6446 14.68 40.7885 14.6405 40.9167 14.5576L44.4125 12.3008C44.7677 12.0715 44.8698 11.5977 44.6404 11.2425C44.4111 10.8873 43.9369 10.7854 43.582 11.0145Z" fill="black"/>
<path d="M32.715 30.5734C32.8375 30.646 32.9722 30.6806 33.105 30.6806C33.3663 30.6806 33.621 30.5468 33.764 30.3056C34.0712 29.7878 34.4054 29.2316 34.7694 28.6256L34.8457 28.4986C36.5097 26.2039 37.3889 23.49 37.3889 20.6478C37.3889 17.1037 36.0177 13.763 33.5279 11.2413C31.0404 8.72194 27.7223 7.308 24.1848 7.26019C20.5021 7.21369 16.912 8.73656 14.3286 11.4472C14.0369 11.7533 14.0485 12.2378 14.3547 12.5295C14.6608 12.8212 15.1454 12.8096 15.437 12.5034C17.7275 10.1 20.9085 8.7451 24.1643 8.79103C27.297 8.8335 30.2356 10.0857 32.4386 12.317C34.6437 14.5503 35.858 17.5089 35.858 20.6478C35.858 23.1751 35.0732 25.5877 33.5884 27.6247C33.575 27.643 33.5624 27.6619 33.5507 27.6814L33.4572 27.8371C33.0916 28.4456 32.756 29.0043 32.4475 29.5242C32.2317 29.888 32.3515 30.3576 32.715 30.5734Z" fill="black"/>
<path d="M31.9599 31.8871C31.584 31.694 31.1224 31.842 30.9291 32.2181C30.2395 33.5602 29.8276 34.667 29.6027 35.8057H18.3974C17.9415 33.4944 16.7641 31.5348 14.5864 27.9095L14.4495 27.6816C14.4377 27.6621 14.4252 27.6432 14.4118 27.6247C12.927 25.5877 12.1422 23.1752 12.1422 20.6479C12.1422 18.605 12.6877 16.581 13.72 14.7949C13.9316 14.4289 13.8062 13.9606 13.4402 13.7491C13.0743 13.5375 12.606 13.6627 12.3945 14.0288C11.2279 16.0476 10.6113 18.3364 10.6113 20.6479C10.6113 23.49 11.4905 26.2039 13.1545 28.4987L13.2742 28.6979C15.462 32.34 16.5304 34.1191 16.9167 36.2143C16.2132 36.6694 15.7463 37.4602 15.7463 38.3587C15.7463 39.0541 16.026 39.685 16.4787 40.1459C16.0261 40.6068 15.7463 41.2378 15.7463 41.9332C15.7463 43.3408 16.8915 44.4861 18.299 44.4861H19.3694C19.9403 46.5299 21.8243 48 24 48C26.1758 48 28.0598 46.53 28.6308 44.486H29.7012C31.1088 44.486 32.2539 43.3407 32.2539 41.9331C32.2539 41.2376 31.9741 40.6067 31.5215 40.1458C31.974 39.6849 32.2539 39.0539 32.2539 38.3586C32.2539 37.4602 31.787 36.6692 31.0835 36.2142C31.2748 35.1743 31.6381 34.1881 32.2908 32.9179C32.4841 32.5418 32.3358 32.0803 31.9599 31.8871ZM24 46.469C22.6675 46.469 21.4954 45.6604 20.9891 44.486H27.011C26.5045 45.6604 25.3324 46.469 24 46.469ZM27.5722 40.9114H29.7011C30.2645 40.9114 30.7228 41.3698 30.7228 41.9331C30.7228 42.4965 30.2643 42.9548 29.7011 42.9548H18.2988C17.7354 42.9548 17.2771 42.4964 17.2771 41.9331C17.2771 41.3697 17.7356 40.9114 18.2988 40.9114H24.5455C24.9683 40.9114 25.311 40.5686 25.311 40.1458C25.311 39.723 24.9683 39.3802 24.5455 39.3802H18.2988C17.7354 39.3802 17.2771 38.9218 17.2771 38.3586C17.2771 37.8972 17.5845 37.5067 18.0052 37.3802C18.0447 37.3684 18.085 37.3595 18.1258 37.3525C18.138 37.3504 18.1502 37.3486 18.1626 37.3469C18.2076 37.341 18.253 37.3367 18.2988 37.3367H29.701C29.7469 37.3367 29.7922 37.3409 29.8372 37.3469C29.8497 37.3485 29.8619 37.3505 29.8742 37.3526C29.9146 37.3595 29.9547 37.3684 29.9939 37.3801C30.4149 37.5064 30.7228 37.8969 30.7228 38.3587C30.7228 38.9221 30.2643 39.3803 29.7011 39.3803H27.5722C27.1494 39.3803 26.8066 39.7231 26.8066 40.1459C26.8066 40.5687 27.1494 40.9114 27.5722 40.9114Z" fill="black"/>
</svg>
