<svg width="48" height="48" viewBox="0 0 48 48" fill="none" xmlns="http://www.w3.org/2000/svg">
<g clip-path="url(#clip0_10_198)">
<path d="M39.4869 30.5411H32.2725V42.5651H39.4869V30.5411Z" fill="#E46A53"/>
<path d="M27.9439 18.9018H20.7295V42.5651H27.9439V18.9018Z" fill="#30A987"/>
<path d="M16.4009 7.93591H9.18652V42.5651H16.4009V7.93591Z" fill="#61ACD2"/>
<path d="M27.9439 30.5411H20.7295V42.5651H27.9439V30.5411Z" fill="#F4A026"/>
<path d="M16.4009 23.2305H9.18652V42.5651H16.4009V23.2305Z" fill="#EFEFEF"/>
<path d="M47.6679 41.8383L44.0607 38.712C43.6592 38.364 43.0517 38.4075 42.7039 38.8089C42.356 39.2104 42.3994 39.8178 42.8008 40.1657L44.4594 41.6031H40.4488V37.5149H43.4308C43.9621 37.5149 44.3927 37.0841 44.3927 36.553C44.3927 36.0218 43.962 35.591 43.4308 35.591H40.4488V30.5409C40.4488 30.0097 40.0181 29.5789 39.4869 29.5789H32.2724C31.8528 29.5789 31.497 29.8481 31.3655 30.2226L28.9057 27.5476V18.9018C28.9057 18.3706 28.475 17.9399 27.9437 17.9399H20.7293C20.4587 17.9399 20.2146 18.052 20.0398 18.2319L17.3626 15.495V7.93592C17.3626 7.40473 16.9319 6.97395 16.4006 6.97395H9.18636C8.65508 6.97395 8.22439 7.40473 8.22439 7.93592V33.8446L5.53105 32.8523V4.69489L6.96842 6.35342C7.15874 6.57289 7.42639 6.68539 7.69573 6.68539C7.91895 6.68539 8.1433 6.60805 8.32536 6.45036C8.7268 6.10245 8.7702 5.49486 8.4222 5.09361L5.29593 1.4864C5.28983 1.47937 5.2843 1.47365 5.27849 1.46737C5.1779 1.35721 5.05124 1.26946 4.90527 1.21509C4.52905 1.07474 4.10521 1.18293 3.84215 1.48621L0.715967 5.09342C0.368062 5.49495 0.411468 6.10245 0.812905 6.45045C1.21434 6.79845 1.82184 6.75495 2.16975 6.35361L3.60721 4.69499V41.6032H0.961967C0.430687 41.6032 0 42.0339 0 42.5651C0 43.0963 0.430687 43.527 0.961967 43.527H3.60721V45.8837C3.60721 46.4149 4.0379 46.8457 4.56918 46.8457C5.10046 46.8457 5.53115 46.4149 5.53115 45.8837V43.527H44.4594L42.8009 44.9644C42.3995 45.3123 42.3561 45.9199 42.7041 46.3211C42.8944 46.5406 43.162 46.6531 43.4314 46.6531C43.6546 46.6531 43.8789 46.5758 44.061 46.4181L47.6682 43.2918C47.6747 43.2862 47.6801 43.2807 47.6861 43.2753C47.7968 43.1745 47.8849 43.0476 47.9395 42.9011C48.0797 42.5251 47.9714 42.1013 47.6679 41.8383ZM33.2344 31.503H38.525V35.5912H36.302L33.2344 32.2553V31.503ZM31.3106 41.6032H28.9058V37.8114L31.3106 38.7878V41.6032ZM31.3106 33.0052V36.7114L28.9058 35.735V30.39L31.3106 33.0052ZM26.982 29.5791H21.6914V22.6712L23.6385 24.6619L26.9819 28.2978V29.5791H26.982ZM21.6914 31.503H26.982V34.9538L24.6986 34.0266C24.5412 33.9628 24.3699 33.9417 24.2017 33.9654L21.6914 34.321V31.503ZM21.6914 19.8637H26.982V25.4556L25.0447 23.3489C25.038 23.3415 25.0312 23.3344 25.0243 23.3273L21.6913 19.9201V19.8637H21.6914ZM19.7675 20.7045V34.5936L17.3627 34.9343V18.2461L19.7675 20.7045ZM19.7675 36.5366V41.6032H17.3627V36.8773L19.7675 36.5366ZM15.4388 8.89779V13.5282L13.3566 11.3995C12.9851 11.0196 12.376 11.0129 11.9964 11.3845C11.6166 11.7559 11.6099 12.365 11.9814 12.7447L15.4388 16.2793V22.2684H10.1482V8.89779H15.4388ZM10.1482 24.1924H15.4388V35.2068L12.8986 35.5666L10.1482 34.5534V24.1924ZM5.53105 34.9026L8.22439 35.8949V41.6032H5.53105V34.9026ZM10.1482 41.6032V36.6037L12.4609 37.4558C12.6102 37.5108 12.7708 37.5277 12.9285 37.5056L15.4388 37.15V41.6032H10.1482ZM21.6914 41.6032V36.2641L24.2148 35.9066L26.9819 37.0301V41.6032H21.6914ZM33.2344 41.6032V38.1313C33.2344 38.129 33.2344 38.1266 33.2344 38.1243V35.0974L35.1717 37.2041C35.3538 37.4023 35.6106 37.5149 35.8797 37.5149H38.525V41.6031H33.2344V41.6032Z" fill="#231F20"/>
</g>
<defs>
<clipPath id="clip0_10_198">
<rect width="48" height="48" fill="white"/>
</clipPath>
</defs>
</svg>
