<svg width="48" height="48" viewBox="0 0 48 48" fill="none" xmlns="http://www.w3.org/2000/svg">
<path d="M32.9037 8.57791C34.0397 8.3651 35.2583 8.644 36.2128 9.445C37.1672 10.2458 37.6532 11.3975 37.6413 12.5532C38.7814 12.742 39.8312 13.4207 40.4542 14.4998C41.0771 15.579 41.1401 16.8276 40.7335 17.9093C41.7403 18.4767 42.4948 19.4734 42.711 20.7007C42.9274 21.9275 42.5596 23.1224 41.8075 24.0002C42.5596 24.8777 42.9274 26.0723 42.711 27.2993C42.4948 28.5261 41.7403 29.5233 40.7335 30.0904C41.1401 31.1724 41.0771 32.4211 40.4542 33.5001C39.8314 34.579 38.7815 35.2578 37.6413 35.4467C37.6534 36.6022 37.1672 37.7539 36.2128 38.5549C35.2583 39.3558 34.0398 39.6345 32.9037 39.4218C32.5198 40.5122 31.6691 41.4282 30.4983 41.8544C29.3272 42.2802 28.0866 42.1256 27.0919 41.5372C26.3584 42.4301 25.2455 42.9998 23.9997 43.0001C22.7538 42.9998 21.6409 42.4302 20.9075 41.5372C19.9129 42.1256 18.6724 42.2802 17.5013 41.8544C16.3305 41.4282 15.4796 40.5122 15.0959 39.4218C13.9599 39.6345 12.7411 39.3558 11.7868 38.5549C10.8321 37.7539 10.3462 36.6022 10.3581 35.4467C9.21804 35.2578 8.16823 34.5791 7.54517 33.5001C6.9222 32.4211 6.85948 31.1726 7.26588 30.0906C6.25929 29.5233 5.50479 28.526 5.28842 27.2993C5.07223 26.0722 5.44001 24.8774 6.19189 24.0002C5.43992 23.1225 5.07223 21.9275 5.28842 20.7007C5.50479 19.4735 6.2591 18.4765 7.26588 17.9093C6.85948 16.8276 6.9222 15.5787 7.54517 14.4998C8.16814 13.4209 9.21795 12.742 10.3581 12.5532C10.346 11.3976 10.8321 10.2458 11.7868 9.445C12.7411 8.644 13.9596 8.36528 15.0957 8.57791C15.4796 7.4876 16.3305 6.57185 17.5013 6.14556C18.6722 5.71956 19.9128 5.87435 20.9075 6.46244C21.6412 5.56966 22.7539 4.99994 23.9997 4.99994C25.2456 4.99994 26.3585 5.56966 27.0919 6.46253C28.0865 5.87444 29.3273 5.71956 30.4983 6.14566C31.6691 6.57194 32.5198 7.48778 32.9037 8.57791Z" fill="#FF6B39"/>
<path d="M14.1 14.1002C19.5676 8.63278 28.4316 8.63278 33.8994 14.1002C39.3668 19.5678 39.3668 28.4317 33.8994 33.8996C28.4317 39.367 19.5676 39.367 14.1 33.8996C8.63268 28.4318 8.63268 19.5679 14.1 14.1002Z" fill="#FFD72E"/>
<path d="M30.7074 18.707C31.0978 18.3165 31.0978 17.6833 30.7074 17.2927C30.3169 16.9023 29.6839 16.9023 29.293 17.2926L17.2929 29.2926C16.9024 29.6831 16.9024 30.3163 17.2929 30.7069C17.4881 30.9021 17.7441 30.9997 17.9999 30.9997C18.2559 30.9997 18.5117 30.9021 18.707 30.7069L30.7074 18.707Z" fill="#000003"/>
<path d="M20.9999 13.9996C18.7944 13.9996 17 15.794 17 17.9998C17 20.2055 18.7943 21.9999 20.9999 21.9999C23.2056 21.9999 25.0001 20.2055 25.0001 17.9998C25 15.7941 23.2056 13.9996 20.9999 13.9996ZM20.9999 19.9999C19.8973 19.9999 19.0001 19.1026 19.0001 17.9999C19.0001 16.897 19.8973 15.9998 20.9999 15.9998C22.1027 15.9998 23 16.897 23 17.9999C23 19.1026 22.1028 19.9999 20.9999 19.9999Z" fill="#000003"/>
<path d="M26.9999 25.9999C24.7944 25.9999 23 27.7942 23 29.9999C23 32.2055 24.7944 34.0001 26.9999 34.0001C29.2056 34.0001 31.0001 32.2056 31.0001 30C31 27.7942 29.2056 25.9999 26.9999 25.9999ZM26.9999 32C25.8973 32 25.0001 31.1028 25.0001 30C25.0001 28.8973 25.8973 28.0001 26.9999 28.0001C28.1027 28.0001 29 28.8973 29 30C29 31.1027 28.1028 32 26.9999 32Z" fill="#000003"/>
<path d="M43.696 20.5271C43.4824 19.3147 42.8386 18.2417 41.892 17.4876C42.1323 16.3018 41.9358 15.0661 41.3202 13.9998C40.7048 12.9336 39.7329 12.1456 38.5855 11.7607C38.4056 10.564 37.7983 9.47003 36.8555 8.67906C35.9248 7.89803 34.7371 7.48075 33.5203 7.51075C32.9423 6.44763 31.9973 5.62713 30.8402 5.20609C30.2886 5.00538 29.7135 4.90356 29.1308 4.90356C28.5054 4.90356 27.8864 5.02169 27.3065 5.24903C26.3998 4.44766 25.231 4 23.9998 4C22.7686 4 21.6001 4.44766 20.6933 5.24903C20.1132 5.02159 19.4944 4.90356 18.8691 4.90356C18.2864 4.90356 17.7113 5.00538 17.1595 5.20609C16.0025 5.62731 15.0575 6.44772 14.4792 7.51075C13.2677 7.48038 12.0746 7.89813 11.1444 8.67887C10.2012 9.47003 9.59374 10.5641 9.41402 11.7609C8.2668 12.1458 7.29499 12.9338 6.67933 13.9999C6.06396 15.066 5.86736 16.3016 6.10764 17.4877C5.16124 18.2417 4.51755 19.3147 4.30361 20.5272C4.09005 21.7394 4.32789 22.9678 4.9593 24.0001C4.32789 25.0321 4.09014 26.2606 4.30371 27.4731C4.51755 28.6853 5.16124 29.7583 6.10774 30.5123C5.86736 31.6984 6.06396 32.9342 6.67933 34.0002C7.29489 35.0661 8.2668 35.8541 9.41402 36.239C9.59392 37.4359 10.2012 38.5298 11.1444 39.321C12.0746 40.1018 13.2672 40.5193 14.4794 40.489C15.0574 41.5523 16.0024 42.3728 17.1598 42.7942C17.7116 42.9948 18.2866 43.0966 18.8692 43.0966C19.4946 43.0966 20.1135 42.9783 20.6934 42.751C21.6 43.5522 22.7685 43.9999 23.9998 44.0001H24.0002C25.2315 43.9998 26.3999 43.5522 27.3066 42.751C27.8866 42.9784 28.5055 43.0966 29.131 43.0966C29.7135 43.0966 30.2887 42.9948 30.8406 42.7941C31.9975 42.3729 32.9424 41.5525 33.5206 40.4891C34.733 40.5193 35.9252 40.1019 36.8558 39.321C37.7988 38.5296 38.4061 37.4357 38.5857 36.239C39.7332 35.8541 40.7051 35.0661 41.3204 34.0001C41.9359 32.9339 42.1325 31.6982 41.8921 30.5122C42.8388 29.7582 43.4823 28.6854 43.696 27.473C43.91 26.2607 43.6721 25.0323 43.0406 24.0001C43.6719 22.9676 43.9098 21.7393 43.696 20.5271ZM41.0484 24.6508C41.6358 25.3361 41.8828 26.2381 41.7263 27.1257C41.5699 28.0131 41.0291 28.7761 40.2428 29.2192C39.8129 29.4613 39.624 29.9806 39.7975 30.4422C40.1152 31.2872 40.0389 32.2196 39.5882 33.0001C39.1377 33.7803 38.3686 34.3125 37.4779 34.4599C36.9913 34.5406 36.6362 34.9638 36.6414 35.4571C36.6507 36.3596 36.2602 37.2095 35.57 37.7887C35.0306 38.2412 34.3468 38.4904 33.6441 38.4904C33.458 38.4904 33.2707 38.473 33.0876 38.4388C32.6019 38.3477 32.1241 38.6245 31.9604 39.0897C31.6606 39.9412 31.003 40.6064 30.1565 40.9145C29.3146 41.2206 28.3676 41.13 27.601 40.6764C27.1764 40.4253 26.6321 40.5213 26.3191 40.9024C25.7463 41.5998 24.9011 41.9998 23.9997 42.0001C23.0983 41.9998 22.2531 41.5998 21.6804 40.9024C21.4844 40.6639 21.198 40.5371 20.907 40.5371C20.7331 40.5371 20.5574 40.5825 20.3985 40.6765C19.632 41.13 18.685 41.2207 17.8435 40.9147C16.9965 40.6064 16.339 39.9412 16.0393 39.0899C15.8756 38.6246 15.3972 38.3486 14.9122 38.4389C14.7292 38.4732 14.542 38.4905 14.3557 38.4905C13.653 38.4905 12.9691 38.2413 12.4298 37.7888C11.7395 37.2096 11.3488 36.3597 11.3582 35.4569C11.3634 34.9638 11.0082 34.5406 10.5218 34.4599C9.63114 34.3125 8.86183 33.7803 8.41136 33.0001C7.96099 32.2198 7.88467 31.2874 8.20221 30.4422C8.37564 29.9806 8.18674 29.4615 7.75708 29.2194C6.97071 28.7761 6.42986 28.013 6.27339 27.1257C6.11702 26.238 6.36396 25.336 6.9513 24.6508C7.27221 24.2763 7.2723 23.7239 6.95139 23.3493C6.36405 22.6638 6.11693 21.7617 6.2733 20.8743C6.42977 19.9865 6.97061 19.2234 7.75689 18.7804C8.18655 18.5385 8.37574 18.0191 8.20221 17.5575C7.88458 16.7123 7.96089 15.78 8.41136 14.9998C8.86202 14.2193 9.63124 13.6871 10.5218 13.5397C11.0082 13.4591 11.3635 13.0358 11.3583 12.5426C11.3488 11.6399 11.7392 10.7901 12.4298 10.2109C12.9689 9.75841 13.6527 9.50912 14.3554 9.50912C14.5415 9.50912 14.7288 9.52656 14.9118 9.56069C15.3971 9.65181 15.8752 9.37516 16.039 8.90987C16.3387 8.05853 16.9963 7.39347 17.8432 7.08531C18.6847 6.77903 19.6315 6.86978 20.3985 7.32334C20.8232 7.5745 21.3671 7.47831 21.6801 7.09731C22.2532 6.39991 23.0987 5.99988 23.9996 5.99988C24.901 5.99988 25.7463 6.39991 26.319 7.09722C26.632 7.47822 27.176 7.57441 27.6007 7.32334C28.3675 6.86997 29.3147 6.77912 30.156 7.08522C31.0029 7.39356 31.6604 8.05863 31.9602 8.91006C32.1241 9.37534 32.6029 9.65144 33.0877 9.56087C33.2707 9.52656 33.4579 9.50922 33.6441 9.50922C34.3465 9.50922 35.0303 9.7585 35.5698 10.2112C36.2599 10.7902 36.6505 11.6402 36.6412 12.5431C36.636 13.0362 36.9911 13.4594 37.4777 13.54C38.3682 13.6875 39.1376 14.2196 39.588 15C40.0386 15.7805 40.1149 16.7128 39.7974 17.5577C39.6238 18.0194 39.8127 18.5386 40.2425 18.7806C41.029 19.224 41.5698 19.9869 41.7262 20.8745C41.8826 21.762 41.6356 22.664 41.0482 23.3494C40.7274 23.7238 40.7275 24.2763 41.0484 24.6508Z" fill="#000003"/>
<path d="M28.0431 11.6446C28.5681 11.8163 29.1327 11.5302 29.3045 11.0052C29.4763 10.4803 29.1899 9.91551 28.665 9.74376C26.1653 8.92598 23.4843 8.77982 20.9119 9.32113C14.2803 10.7163 9.39102 16.4169 9.02202 23.1838C8.99193 23.7353 9.41474 24.2067 9.96608 24.2368C9.98464 24.2378 10.003 24.2383 10.0214 24.2383C10.5487 24.2383 10.99 23.8256 11.0191 23.2927C11.3388 17.4279 15.5761 12.4874 21.3237 11.2783C23.5531 10.8091 25.8766 10.9358 28.0431 11.6446Z" fill="#000003"/>
<path d="M38.0336 23.7628C37.4827 23.7334 37.0108 24.1554 36.9807 24.7069C36.661 30.5718 32.4236 35.5125 26.6759 36.7216C24.4467 37.1907 22.123 37.064 19.9567 36.3552C19.4321 36.1836 18.8672 36.4698 18.6954 36.9947C18.5236 37.5196 18.8099 38.0842 19.3348 38.2561C20.8458 38.7505 22.423 38.9994 24.0026 38.9994C25.0359 38.9994 26.0706 38.8928 27.0878 38.6787C33.7195 37.2836 38.6089 31.5829 38.9778 24.8158C39.0078 24.2644 38.585 23.7928 38.0336 23.7628Z" fill="#000003"/>
<path d="M11.2407 26.4909C11.1353 25.9489 10.6101 25.595 10.068 25.7002C9.52597 25.8056 9.17197 26.3305 9.27735 26.8728C9.33051 27.1461 9.39416 27.4283 9.46644 27.7116C9.58176 28.1638 9.98844 28.4647 10.4348 28.4647C10.5164 28.4647 10.5998 28.4546 10.6827 28.4334C11.2179 28.2969 11.5409 27.7524 11.4044 27.2173C11.3414 26.971 11.2864 26.7267 11.2407 26.4909Z" fill="#000003"/>
<path d="M36.7591 21.5097C36.8523 21.987 37.2707 22.3183 37.7396 22.3183C37.803 22.3183 37.8675 22.3122 37.9322 22.2996C38.4742 22.1938 38.8279 21.6686 38.722 21.1265C38.668 20.8495 38.6045 20.5674 38.5331 20.2881C38.3966 19.753 37.8525 19.4297 37.317 19.5663C36.7818 19.7028 36.4587 20.2473 36.5952 20.7824C36.6572 21.0251 36.7122 21.2698 36.7591 21.5097Z" fill="#000003"/>
</svg>
