<svg width="25" height="24" viewBox="0 0 25 24" fill="none" xmlns="http://www.w3.org/2000/svg">
<path d="M24.8803 12C24.8814 12.5049 24.7391 12.9998 24.4701 13.427C24.201 13.8542 23.8161 14.1963 23.3603 14.4134L3.82697 23.6667C3.46946 23.8616 3.07342 23.9754 2.66697 24C2.22219 23.9991 1.78471 23.8869 1.39435 23.6737C1.00399 23.4605 0.673157 23.1531 0.431969 22.7794C0.190781 22.4057 0.0468998 21.9776 0.0134237 21.5341C-0.0200524 21.0905 0.0579403 20.6457 0.240301 20.24L3.2803 13.3334H10.667C11.0206 13.3334 11.3597 13.1929 11.6098 12.9428C11.8598 12.6928 12.0003 12.3536 12.0003 12C12.0003 11.6464 11.8598 11.3073 11.6098 11.0572C11.3597 10.8072 11.0206 10.6667 10.667 10.6667H3.2803L0.240301 3.82669C0.0200237 3.32963 -0.0430617 2.77712 0.0595002 2.24321C0.162062 1.70929 0.42537 1.21948 0.814136 0.839416C1.2029 0.459354 1.69855 0.207202 2.23465 0.116753C2.77075 0.026305 3.32169 0.101882 3.81363 0.333356L23.347 9.58669C23.8053 9.80188 24.1929 10.1431 24.4644 10.5705C24.736 10.9978 24.8802 11.4937 24.8803 12Z" fill="#4318FF"/>
</svg>
