<svg width="25" height="24" viewBox="0 0 25 24" fill="none" xmlns="http://www.w3.org/2000/svg">
<path d="M24.8798 12C24.8809 12.5049 24.7386 12.9998 24.4696 13.427C24.2005 13.8542 23.8156 14.1963 23.3598 14.4134L3.82648 23.6667C3.46897 23.8616 3.07293 23.9754 2.66648 24C2.2217 23.9991 1.78422 23.8869 1.39386 23.6737C1.0035 23.4605 0.672669 23.1531 0.431481 22.7794C0.190293 22.4057 0.0464115 21.9776 0.0129354 21.5341C-0.0205407 21.0905 0.057452 20.6457 0.239813 20.24L3.27981 13.3334H10.6665C11.0201 13.3334 11.3592 13.1929 11.6093 12.9428C11.8593 12.6928 11.9998 12.3536 11.9998 12C11.9998 11.6464 11.8593 11.3073 11.6093 11.0572C11.3592 10.8072 11.0201 10.6667 10.6665 10.6667H3.27981L0.239813 3.82669C0.0195355 3.32963 -0.04355 2.77712 0.0590119 2.24321C0.161574 1.70929 0.424882 1.21948 0.813648 0.839416C1.20241 0.459354 1.69806 0.207202 2.23416 0.116753C2.77026 0.026305 3.3212 0.101882 3.81315 0.333356L23.3465 9.58669C23.8048 9.80188 24.1924 10.1431 24.4639 10.5705C24.7355 10.9978 24.8797 11.4937 24.8798 12Z" fill="#E1E1E1"/>
</svg>
